<?xml version="1.0" standalone="no"?>
<!DOCTYPE svg PUBLIC "-//W3C//DTD SVG 20010904//EN"
 "http://www.w3.org/TR/2001/REC-SVG-20010904/DTD/svg10.dtd">
<svg version="1.0" xmlns="http://www.w3.org/2000/svg"
 width="3101.000000pt" height="633.000000pt" viewBox="0 0 3101.000000 633.000000"
 preserveAspectRatio="xMidYMid meet">

<g transform="translate(0.000000,633.000000) scale(0.100000,-0.100000)"
fill="#000000" stroke="none">
<path d="M2885 6320 c-749 -67 -1393 -356 -1923 -865 -422 -405 -715 -898
-870 -1465 -69 -252 -92 -454 -92 -820 0 -332 20 -525 75 -743 142 -555 421
-1064 784 -1427 l105 -105 8 45 c4 25 12 767 17 1650 6 974 14 1632 20 1673
14 93 60 221 112 313 55 97 171 221 267 286 100 68 259 145 335 163 74 17 492
21 578 5 68 -13 223 -87 306 -146 86 -62 188 -165 239 -244 29 -46 67 -134
122 -290 74 -210 426 -1270 665 -2005 140 -431 177 -524 227 -569 71 -64 168
-69 280 -13 55 27 75 65 90 167 22 148 29 801 30 2492 l0 1717 -92 30 c-225
72 -391 110 -598 136 -147 19 -540 28 -685 15z"/>
<path d="M5074 5659 c-15 -26 -22 -324 -28 -1209 -3 -509 -11 -1334 -17 -1835
l-11 -910 -58 -120 c-71 -147 -113 -210 -199 -298 -139 -142 -310 -235 -516
-278 -89 -19 -410 -16 -505 5 -160 34 -377 172 -486 307 -104 130 -82 71 -579
1564 -364 1094 -451 1343 -481 1376 -55 61 -189 78 -279 35 -56 -27 -98 -67
-115 -111 -22 -54 -29 -635 -29 -2278 l-1 -1607 58 -26 c240 -106 498 -186
797 -245 181 -36 735 -35 1040 2 105 13 293 58 452 110 493 159 897 406 1262
770 484 483 788 1051 902 1689 59 334 43 910 -36 1240 -105 435 -319 903 -560
1225 -99 132 -290 340 -426 464 -129 117 -173 148 -185 130z"/>
<path d="M9205 4710 c-102 -14 -186 -39 -285 -87 -82 -39 -108 -58 -185 -137
-72 -72 -100 -110 -137 -181 -25 -49 -53 -115 -63 -145 -28 -94 -34 -402 -35
-1632 l0 -1178 294 0 294 0 6 1088 c7 1176 15 1537 39 1593 21 52 88 106 153
125 82 24 151 7 211 -50 58 -55 80 -116 407 -1116 361 -1107 420 -1277 468
-1347 86 -128 260 -249 432 -302 129 -40 422 -22 572 34 204 77 384 256 458
456 22 60 29 99 36 223 5 83 10 715 10 1404 l0 1252 -293 0 -294 0 -6 -1337
-6 -1337 -48 -49 c-27 -27 -68 -61 -93 -75 -94 -56 -222 -25 -283 67 -32 48
-131 333 -392 1126 -223 678 -394 1174 -433 1253 -57 117 -209 246 -357 303
-133 52 -307 70 -470 49z"/>
<path d="M12940 4713 c-68 -10 -172 -39 -233 -64 -201 -81 -321 -199 -426
-419 l-49 -105 -5 -1387 -6 -1388 295 0 294 0 0 838 c1 1111 13 1740 35 1803
49 141 209 213 325 148 55 -30 71 -53 120 -164 36 -84 311 -904 605 -1808 70
-213 142 -418 160 -455 82 -163 270 -310 474 -372 67 -21 87 -22 240 -17 306
10 470 78 638 262 116 126 167 239 183 401 6 69 10 591 10 1418 l0 1309 -281
-6 c-154 -3 -284 -9 -287 -12 -4 -4 -10 -448 -14 -988 -8 -1059 -20 -1566 -41
-1663 -23 -106 -49 -130 -173 -154 -86 -17 -136 -2 -194 58 -55 57 -16 -49
-440 1217 -186 556 -352 1047 -370 1093 -65 168 -182 296 -343 376 -127 63
-232 86 -377 85 -63 -1 -126 -3 -140 -6z"/>
<path d="M23229 4710 c-131 -19 -273 -84 -352 -164 -95 -94 -116 -145 -434
-1021 -79 -220 -169 -459 -198 -530 -85 -207 -370 -999 -515 -1432 -56 -166
-66 -204 -55 -213 15 -13 140 -16 426 -12 l186 2 80 228 79 227 916 3 916 2
26 -67 c14 -38 52 -140 84 -228 l59 -160 239 -7 c257 -8 357 -4 373 16 8 9
-11 76 -68 247 -151 449 -473 1347 -541 1509 -43 102 -98 249 -255 680 -192
527 -230 620 -280 689 -74 101 -192 176 -333 212 -90 23 -259 32 -353 19z
m221 -597 c33 -31 75 -130 200 -467 99 -267 174 -492 194 -577 8 -37 54 -178
102 -314 47 -136 88 -264 91 -284 9 -69 41 -66 -646 -66 -339 0 -633 4 -653 8
-68 14 -66 24 87 482 175 527 358 1038 415 1159 29 60 69 86 132 86 38 0 54
-6 78 -27z"/>
<path d="M7683 4703 l-83 -4 0 -1287 c0 -708 -3 -1466 -7 -1684 l-6 -398 296
0 297 0 0 698 c0 744 -17 2383 -26 2570 l-6 112 -191 -2 c-106 -1 -229 -4
-274 -5z"/>
<path d="M17159 4700 c-492 -44 -880 -302 -1075 -714 -135 -285 -178 -546
-179 -1076 0 -317 1 -328 27 -451 121 -559 420 -909 905 -1058 125 -39 185
-48 413 -62 224 -14 690 -6 840 15 292 41 553 169 746 363 299 302 432 780
395 1424 -32 561 -143 886 -392 1153 -184 197 -414 325 -686 381 -139 29 -771
44 -994 25z m847 -570 c128 -14 208 -41 291 -99 171 -120 285 -310 337 -561
29 -138 40 -351 28 -526 -29 -412 -115 -659 -291 -835 -105 -105 -206 -155
-341 -169 -151 -15 -859 -12 -953 5 -374 66 -587 445 -604 1076 -9 330 23 526
118 719 47 94 63 116 153 205 163 162 230 185 571 194 273 7 571 4 691 -9z"/>
<path d="M19093 4703 c-20 -3 -33 -10 -33 -19 0 -18 77 -244 310 -909 100
-286 209 -603 242 -705 136 -416 224 -678 315 -930 148 -412 189 -513 238
-579 54 -74 149 -152 240 -197 94 -46 222 -59 435 -46 136 9 156 13 216 41 92
43 187 113 233 171 28 35 66 118 139 302 120 302 294 780 352 968 101 323 398
1194 587 1714 35 98 61 181 58 185 -11 10 -219 14 -411 6 l-181 -7 -203 -577
c-232 -659 -403 -1130 -453 -1246 -19 -44 -76 -197 -127 -340 -144 -404 -207
-561 -237 -584 -36 -29 -87 -36 -131 -19 -45 17 -51 31 -217 488 -64 179 -141
384 -170 455 -74 182 -432 1179 -637 1778 l-20 57 -256 -2 c-142 0 -272 -3
-289 -5z"/>
<path d="M25276 4483 c-11 -419 -29 -2886 -21 -3015 l7 -128 292 0 293 0 6
323 c4 177 7 412 8 522 0 195 10 349 23 362 3 4 22 -1 40 -10 40 -18 568 -335
1101 -658 436 -265 804 -482 931 -551 l91 -48 7 52 c8 69 8 372 0 524 l-7 120
-231 129 c-690 386 -1039 592 -1033 610 5 15 70 24 182 24 209 2 397 41 551
116 112 54 193 115 279 207 165 179 224 378 212 718 -4 121 -11 177 -31 255
-100 391 -399 630 -833 665 -73 6 -490 10 -993 10 l-867 0 -7 -227z m1971
-389 c73 -51 147 -142 175 -214 29 -75 31 -222 5 -298 -27 -77 -110 -163 -201
-207 l-71 -36 -250 -9 c-403 -14 -946 -22 -1000 -13 l-50 8 -8 50 c-4 28 -5
208 -1 402 l6 352 62 4 c33 2 334 3 668 3 l607 -1 58 -41z"/>
<path d="M29295 4700 c-367 -8 -386 -12 -549 -92 -103 -51 -157 -88 -235 -162
-113 -108 -181 -229 -228 -402 -24 -92 -27 -115 -27 -309 -1 -237 7 -284 70
-413 27 -56 60 -99 136 -178 l100 -104 -56 -51 c-115 -105 -205 -256 -247
-414 -33 -125 -38 -348 -9 -485 42 -205 117 -350 249 -480 96 -94 212 -169
345 -222 72 -28 97 -32 221 -39 77 -4 543 -8 1037 -8 l896 -1 7 115 c4 64 6
183 3 266 -3 120 -7 153 -20 165 -26 27 -191 33 -888 34 -689 0 -952 9 -1039
35 -188 57 -291 349 -193 548 40 81 115 161 177 188 62 28 226 36 795 43 256
4 621 9 813 12 l347 6 0 284 0 284 -227 0 c-425 0 -1477 20 -1581 30 -57 5
-120 17 -140 27 -56 26 -165 139 -194 203 -54 116 -59 228 -14 326 30 64 125
167 179 193 76 36 196 42 1075 49 798 7 852 8 869 25 16 16 18 44 21 277 l3
260 -693 -2 c-381 -1 -832 -5 -1003 -8z"/>
</g>
</svg>
