<svg className="p-2 w-auto h-14" viewBox="0 0 146 24" fill="none" xmlns="https://www.w3.org/2000/svg">
    <path fill-rule="evenodd" clip-rule="evenodd" d="M55.874 11.9219C55.874 11.5584 55.8129 11.2626 55.6908 11.035C55.5691 10.808 55.4013 10.6295 55.1879 10.501C54.9746 10.3719 54.7115 10.2846 54.3992 10.2394C54.0866 10.1939 53.7398 10.1712 53.3587 10.1712C52.5356 10.1712 51.6593 10.3302 50.7294 10.6485C50.5158 10.2543 50.356 9.88282 50.2494 9.53428C50.1427 9.18573 50.0891 8.76887 50.0891 8.28355C50.7599 8.05622 51.4304 7.88951 52.1012 7.7834C52.7717 7.6773 53.3971 7.6241 53.976 7.6241C55.5614 7.6241 56.7998 8.00303 57.6916 8.76131C58.5832 9.51931 59.0291 10.7318 59.0291 12.3994V19.2212C58.4955 19.3879 57.8476 19.5472 57.0855 19.6988C56.3236 19.8504 55.4623 19.9263 54.5019 19.9263C53.7246 19.9263 53.0119 19.858 52.364 19.7215C51.7163 19.5852 51.1598 19.3575 50.6953 19.0392C50.2301 18.7212 49.8721 18.3118 49.6203 17.8115C49.369 17.311 49.2432 16.6972 49.2432 15.9695C49.2432 15.242 49.3994 14.6318 49.7119 14.1391C50.0244 13.6465 50.4284 13.2522 50.9236 12.9567C51.4192 12.661 51.9716 12.4488 52.5815 12.3199C53.1912 12.191 53.8007 12.1266 54.4105 12.1266C54.8525 12.1266 55.3402 12.1495 55.874 12.1947V11.9219ZM55.874 14.2642C55.6908 14.2338 55.4928 14.2071 55.2791 14.1846C55.0658 14.1619 54.8756 14.1506 54.7077 14.1506C53.9608 14.1506 53.3701 14.283 52.9356 14.5484C52.5012 14.8136 52.2841 15.242 52.2841 15.8331C52.2841 16.2275 52.3679 16.5304 52.5356 16.7429C52.7032 16.9549 52.9053 17.1103 53.1415 17.2087C53.3778 17.3074 53.629 17.368 53.8959 17.3908C54.1629 17.4134 54.3953 17.4251 54.5931 17.4251C54.822 17.4251 55.0507 17.4059 55.2791 17.368C55.508 17.3301 55.706 17.2962 55.874 17.2657V14.2642ZM61.1936 10.3529H59.7073L59.5928 9.89809L63.8687 4.46334H64.3945V7.89692H67.161C67.2065 8.12454 67.2372 8.32904 67.2527 8.51088C67.2676 8.693 67.2752 8.88239 67.2752 9.07963C67.2752 9.29169 67.2676 9.49634 67.2527 9.69343C67.2372 9.89067 67.2065 10.1104 67.161 10.3529H64.3945V14.9692C64.3945 15.4389 64.4328 15.8179 64.5091 16.1061C64.5849 16.3937 64.6956 16.6213 64.8402 16.7882C64.9854 16.9549 65.1642 17.0686 65.3776 17.1292C65.591 17.1901 65.8428 17.2203 66.132 17.2203C66.3609 17.2203 66.5855 17.2013 66.8068 17.1634C67.0276 17.1256 67.222 17.0914 67.3896 17.0612C67.4966 17.3488 67.5724 17.6484 67.6183 17.9593C67.6642 18.27 67.6868 18.5469 67.6868 18.7894C67.6868 18.9561 67.6832 19.0962 67.6755 19.21C67.6679 19.3235 67.6566 19.4338 67.6411 19.5397C66.9401 19.7067 66.2162 19.7897 65.4692 19.7897C64.082 19.7897 63.0225 19.4677 62.291 18.8237C61.5594 18.1792 61.1936 17.1292 61.1936 15.674V10.3529ZM69.7718 10.3529H68.2858L68.1712 9.89809L72.4469 4.46334H72.9728V7.89692H75.7393C75.7849 8.12454 75.8156 8.32904 75.8309 8.51088C75.8458 8.693 75.8536 8.88239 75.8536 9.07963C75.8536 9.29169 75.8458 9.49634 75.8309 9.69343C75.8156 9.89067 75.7849 10.1104 75.7393 10.3529H72.9728V14.9692C72.9728 15.4389 73.0112 15.8179 73.0872 16.1061C73.1635 16.3937 73.274 16.6213 73.4187 16.7882C73.5636 16.9549 73.7424 17.0686 73.956 17.1292C74.1693 17.1901 74.4211 17.2203 74.7103 17.2203C74.939 17.2203 75.1638 17.2013 75.385 17.1634C75.606 17.1256 75.8004 17.0914 75.968 17.0612C76.0747 17.3488 76.1508 17.6484 76.1964 17.9593C76.2425 18.27 76.2653 18.5469 76.2653 18.7894C76.2653 18.9561 76.2615 19.0962 76.2537 19.21C76.2463 19.3235 76.2349 19.4338 76.2195 19.5397C75.5183 19.7067 74.7946 19.7897 74.0474 19.7897C72.6605 19.7897 71.6009 19.4677 70.8693 18.8237C70.1377 18.1792 69.7718 17.1292 69.7718 15.674V10.3529ZM84.7906 12.5135C84.7602 11.7854 84.5581 11.1982 84.1847 10.751C83.8113 10.3038 83.2893 10.0799 82.6185 10.0799C81.8563 10.0799 81.2772 10.2923 80.8808 10.7167C80.4846 11.1413 80.2484 11.7401 80.1723 12.5135H84.7906ZM80.1492 14.7644C80.2103 15.674 80.5304 16.3334 81.1095 16.7429C81.6887 17.1522 82.4509 17.3568 83.3961 17.3568C83.9143 17.3568 84.4437 17.3074 84.985 17.2087C85.5262 17.1103 86.0405 16.97 86.5284 16.7882C86.6961 17.0914 86.8408 17.4552 86.9628 17.8798C87.0847 18.3039 87.1532 18.759 87.1686 19.244C85.9795 19.6988 84.6381 19.9263 83.1442 19.9263C82.0469 19.9263 81.1059 19.7747 80.3205 19.4713C79.5357 19.1683 78.8954 18.7474 78.4002 18.2096C77.9047 17.6713 77.5388 17.0308 77.3026 16.2878C77.0664 15.545 76.9485 14.7341 76.9485 13.8551C76.9485 12.9908 77.0702 12.1798 77.3141 11.4218C77.5578 10.6635 77.9199 10.0043 78.4002 9.44358C78.8802 8.88239 79.4746 8.43907 80.1836 8.11306C80.8924 7.78718 81.7192 7.6241 82.6642 7.6241C83.4873 7.6241 84.2191 7.76814 84.8592 8.05622C85.4994 8.34416 86.0443 8.73849 86.494 9.23893C86.9436 9.73878 87.283 10.3341 87.5116 11.0238C87.7403 11.7135 87.8546 12.4527 87.8546 13.2408C87.8546 13.5289 87.8432 13.8134 87.8202 14.0936C87.7974 14.3738 87.7704 14.5977 87.7403 14.7644H80.1492ZM89.0945 7.89692C89.323 7.85172 89.5402 7.81742 89.746 7.79489C89.952 7.77178 90.1765 7.76058 90.4206 7.76058C90.6493 7.76058 90.8742 7.77599 91.0949 7.80593C91.3161 7.83631 91.5333 7.87439 91.7464 7.91989C91.7924 7.99576 91.8344 8.1055 91.8724 8.24954C91.9105 8.39358 91.9447 8.54518 91.9753 8.70448C92.0058 8.86364 92.0323 9.0225 92.0552 9.18195C92.0781 9.34125 92.097 9.47338 92.1125 9.58006C92.4478 9.10986 92.8596 8.68907 93.3471 8.31785C93.835 7.94634 94.4447 7.76058 95.1761 7.76058C95.3288 7.76058 95.5041 7.76814 95.7021 7.7834C95.9001 7.79852 96.045 7.82119 96.1365 7.85172C96.167 8.00303 96.1899 8.17744 96.205 8.37454C96.2206 8.57163 96.2281 8.77628 96.2281 8.98864C96.2281 9.24634 96.2164 9.52672 96.1937 9.82992C96.1708 10.1331 96.1288 10.4211 96.0678 10.694C95.9001 10.6635 95.7135 10.6485 95.5079 10.6485C95.3021 10.6485 95.1761 10.6485 95.1307 10.6485C94.8713 10.6485 94.5819 10.6751 94.2616 10.728C93.9416 10.7812 93.6368 10.9213 93.3471 11.149C93.0573 11.3763 92.8175 11.7174 92.6268 12.1724C92.4364 12.6269 92.3408 13.2636 92.3408 14.0824V19.6763C92.0667 19.7215 91.7924 19.7519 91.5178 19.767C91.2437 19.7823 90.977 19.7897 90.7177 19.7897C90.4584 19.7897 90.1957 19.7823 89.9288 19.767C89.6621 19.7519 89.384 19.7215 89.0945 19.6763V7.89692ZM97.75 7.89692C97.9633 7.85172 98.1768 7.81742 98.39 7.79489C98.6035 7.77178 98.8397 7.76058 99.099 7.76058C99.3581 7.76058 99.5866 7.77178 99.7848 7.79489C99.983 7.81742 100.189 7.85172 100.402 7.89692C100.448 7.97279 100.49 8.08282 100.528 8.22686C100.566 8.37076 100.6 8.52265 100.631 8.68152C100.661 8.84082 100.688 8.99605 100.711 9.14765C100.734 9.29925 100.753 9.42817 100.768 9.53428C100.89 9.3071 101.05 9.07963 101.248 8.85201C101.446 8.62497 101.683 8.42047 101.957 8.2382C102.231 8.05622 102.54 7.9084 102.883 7.79489C103.226 7.68093 103.611 7.6241 104.038 7.6241C105.882 7.6241 107.063 8.32163 107.581 9.7164C107.886 9.15535 108.317 8.66669 108.873 8.24954C109.43 7.83253 110.135 7.6241 110.988 7.6241C112.33 7.6241 113.317 7.99213 113.949 8.7273C114.582 9.46233 114.898 10.6107 114.898 12.1724V19.6535C114.349 19.7445 113.808 19.7897 113.275 19.7897C112.741 19.7897 112.2 19.7445 111.651 19.6535V13.0133C111.651 12.1947 111.548 11.5658 111.342 11.1263C111.137 10.6866 110.722 10.4667 110.097 10.4667C109.837 10.4667 109.582 10.5048 109.331 10.5804C109.079 10.6559 108.85 10.7962 108.645 11.001C108.439 11.2056 108.271 11.4939 108.142 11.8652C108.012 12.2363 107.947 12.718 107.947 13.3091V19.6535C107.399 19.7445 106.857 19.7897 106.324 19.7897C105.79 19.7897 105.249 19.7445 104.7 19.6535V13.0133C104.7 12.1947 104.598 11.5658 104.392 11.1263C104.186 10.6866 103.771 10.4667 103.146 10.4667C102.887 10.4667 102.628 10.5048 102.368 10.5804C102.11 10.6559 101.877 10.8039 101.671 11.0238C101.465 11.2434 101.301 11.5504 101.18 11.9447C101.058 12.3388 100.996 12.8543 100.996 13.491V19.6535C100.448 19.7445 99.907 19.7897 99.3733 19.7897C98.8397 19.7897 98.2988 19.7445 97.75 19.6535V7.89692ZM121.51 17.4703C122.364 17.4703 122.977 17.1559 123.351 16.5266C123.724 15.8977 123.911 14.9917 123.911 13.8094C123.911 12.6269 123.724 11.7212 123.351 11.092C122.977 10.4626 122.364 10.1482 121.51 10.1482C120.672 10.1482 120.066 10.4626 119.693 11.092C119.319 11.7212 119.132 12.6269 119.132 13.8094C119.132 14.9917 119.319 15.8977 119.693 16.5266C120.066 17.1559 120.672 17.4703 121.51 17.4703ZM121.51 19.9263C120.55 19.9263 119.715 19.7708 119.007 19.46C118.298 19.1494 117.711 18.7173 117.246 18.1638C116.781 17.6104 116.431 16.9625 116.195 16.2196C115.958 15.4767 115.84 14.6735 115.84 13.8094C115.84 12.9453 115.958 12.1341 116.195 11.3763C116.431 10.6183 116.781 9.96262 117.246 9.40928C117.711 8.85579 118.298 8.42047 119.007 8.10172C119.715 7.7834 120.55 7.6241 121.51 7.6241C122.471 7.6241 123.309 7.7834 124.025 8.10172C124.742 8.42047 125.336 8.85579 125.809 9.40928C126.281 9.96262 126.632 10.6183 126.861 11.3763C127.089 12.1341 127.203 12.9453 127.203 13.8094C127.203 14.6735 127.089 15.4767 126.861 16.2196C126.632 16.9625 126.281 17.6104 125.809 18.1638C125.336 18.7173 124.742 19.1494 124.025 19.46C123.309 19.7708 122.471 19.9263 121.51 19.9263ZM130.73 14.537C129.876 14.2943 129.209 13.9344 128.729 13.4568C128.249 12.9795 128.009 12.2631 128.009 11.3078C128.009 10.1556 128.425 9.25404 129.255 8.60215C130.086 7.95012 131.218 7.6241 132.651 7.6241C133.245 7.6241 133.832 7.6773 134.411 7.7834C134.99 7.88951 135.577 8.04852 136.172 8.26102C136.141 8.65492 136.065 9.06422 135.943 9.48893C135.821 9.9132 135.676 10.2846 135.509 10.6033C135.143 10.4516 134.739 10.3189 134.297 10.2051C133.855 10.0915 133.39 10.0347 132.902 10.0347C132.384 10.0347 131.98 10.1142 131.69 10.2734C131.401 10.4327 131.256 10.6866 131.256 11.035C131.256 11.3686 131.359 11.6036 131.564 11.7401C131.77 11.8764 132.064 12.0056 132.445 12.1266L133.748 12.5135C134.175 12.6346 134.56 12.7822 134.903 12.9567C135.246 13.1311 135.539 13.3471 135.783 13.6046C136.027 13.8623 136.217 14.1808 136.354 14.5597C136.492 14.9388 136.56 15.401 136.56 15.9466C136.56 16.5078 136.442 17.0308 136.206 17.5158C135.97 18.001 135.627 18.4216 135.177 18.7777C134.727 19.1343 134.182 19.4147 133.542 19.6192C132.902 19.824 132.178 19.9263 131.37 19.9263C131.004 19.9263 130.669 19.9148 130.364 19.8921C130.059 19.8692 129.766 19.8314 129.484 19.7785C129.202 19.7253 128.924 19.661 128.649 19.5852C128.375 19.5094 128.078 19.4109 127.758 19.2895C127.788 18.8801 127.861 18.467 127.975 18.0503C128.089 17.6336 128.238 17.2277 128.421 16.8336C128.924 17.0308 129.4 17.1785 129.85 17.277C130.3 17.3757 130.768 17.4251 131.256 17.4251C131.469 17.4251 131.702 17.4059 131.953 17.368C132.205 17.3301 132.437 17.2619 132.651 17.1634C132.864 17.0648 133.043 16.9359 133.188 16.7769C133.333 16.6177 133.405 16.4093 133.405 16.1513C133.405 15.7878 133.294 15.5261 133.074 15.367C132.852 15.208 132.544 15.0673 132.148 14.9462L130.73 14.537ZM138.638 10.3529H137.152L137.038 9.89809L141.313 4.46334H141.839V7.89692H144.606C144.651 8.12454 144.682 8.32904 144.697 8.51088C144.712 8.693 144.72 8.88239 144.72 9.07963C144.72 9.29169 144.712 9.49634 144.697 9.69343C144.682 9.89067 144.651 10.1104 144.606 10.3529H141.839V14.9692C141.839 15.4389 141.877 15.8179 141.953 16.1061C142.03 16.3937 142.14 16.6213 142.285 16.7882C142.43 16.9549 142.609 17.0686 142.822 17.1292C143.035 17.1901 143.287 17.2203 143.577 17.2203C143.806 17.2203 144.03 17.2013 144.251 17.1634C144.472 17.1256 144.667 17.0914 144.834 17.0612C144.941 17.3488 145.017 17.6484 145.063 17.9593C145.109 18.27 145.132 18.5469 145.132 18.7894C145.132 18.9561 145.128 19.0962 145.12 19.21C145.113 19.3235 145.101 19.4338 145.086 19.5397C144.385 19.7067 143.661 19.7897 142.914 19.7897C141.527 19.7897 140.467 19.4677 139.736 18.8237C139.004 18.1792 138.638 17.1292 138.638 15.674V10.3529ZM31.4979 4.29735C32.1586 4.20593 32.7942 4.16 33.405 4.16C34.0491 4.16 34.685 4.20593 35.3124 4.29735L39.3993 12.7338L43.6101 4.29735C44.122 4.20593 44.6914 4.16 45.3191 4.16C45.9466 4.16 46.549 4.20593 47.1272 4.29735L47.9693 19.7891C47.342 19.8807 46.7475 19.9263 46.1862 19.9263C45.6244 19.9263 45.0715 19.8807 44.5267 19.7891L44.0806 8.58835L40.4643 16.3298C40.2329 16.3603 39.9937 16.3873 39.7458 16.4099C39.4981 16.4328 39.2507 16.4442 39.0028 16.4442C38.788 16.4442 38.5736 16.4366 38.3591 16.4213C38.1444 16.4061 37.9215 16.3754 37.6902 16.3298L34.3217 8.42788L33.9749 19.7891C33.4466 19.8807 32.9346 19.9263 32.439 19.9263C31.9106 19.9263 31.3654 19.8807 30.8044 19.7891L31.4979 4.29735Z" fill="#222C3B"></path>
    <path fill-rule="evenodd" clip-rule="evenodd" d="M16.1541 9.80599C16.1541 9.80599 16.1914 11.4435 15.0527 12.556C13.9139 13.6685 12.5152 13.5668 11.6054 13.2596C10.6954 12.9524 9.5224 12.1858 9.29534 10.6124C9.06842 9.03886 10.0955 7.76055 10.0955 7.76055L12.3336 4.98495L13.6371 3.3997L14.756 2.01826C14.756 2.01826 15.2694 1.33235 15.4158 1.19079C15.4448 1.16274 15.4745 1.14433 15.5036 1.13016L15.5249 1.11935L15.5287 1.11789C15.5902 1.09145 15.6611 1.08575 15.7295 1.10883C15.7965 1.13148 15.8483 1.17735 15.8812 1.23389L15.888 1.24484L15.894 1.25741C15.91 1.2875 15.9233 1.32183 15.9296 1.3642C15.9595 1.56537 15.9497 2.42132 15.9497 2.42132L15.997 4.19634L16.0669 6.24528L16.1541 9.80599ZM19.0512 2.29041C23.1906 5.29479 25.089 10.7471 23.3628 15.8466C21.2383 22.1224 14.4286 25.4878 8.15299 23.3633C1.87739 21.2387 -1.48771 14.4289 0.63668 8.15308C2.36576 3.04526 7.19831 -0.134284 12.3205 0.00435732L10.6787 1.94431C7.63993 2.49377 5.01621 4.569 3.98499 7.61546C2.45064 12.148 5.02235 17.1141 9.72912 18.7074C14.4357 20.3008 19.4952 17.9182 21.0295 13.3857C22.0574 10.3493 21.2424 7.1186 19.1776 4.83738L19.0512 2.29041Z" fill="#0058CC"></path>
</svg>